<svg width="13" height="13" viewBox="0 0 13 13" fill="none" xmlns="http://www.w3.org/2000/svg">
<path d="M8.32822 6.99813H4.85372C4.76154 6.99813 4.67313 7.03532 4.60795 7.10151C4.54276 7.16771 4.50614 7.25749 4.50614 7.3511C4.50614 7.44472 4.54276 7.5345 4.60795 7.60069C4.67313 7.66689 4.76154 7.70408 4.85372 7.70408H8.32822C8.42041 7.70408 8.50882 7.66689 8.574 7.60069C8.63918 7.5345 8.67581 7.44472 8.67581 7.3511C8.67581 7.25749 8.63918 7.16771 8.574 7.10151C8.50882 7.03532 8.42041 6.99813 8.32822 6.99813ZM9.02339 4.88098H4.15923C4.06705 4.88098 3.97864 4.91817 3.91345 4.98437C3.84827 5.05056 3.81165 5.14034 3.81165 5.23395C3.81165 5.32757 3.84827 5.41735 3.91345 5.48354C3.97864 5.54974 4.06705 5.58693 4.15923 5.58693H9.02339C9.11557 5.58693 9.20398 5.54974 9.26917 5.48354C9.33435 5.41735 9.37097 5.32757 9.37097 5.23395C9.37097 5.14034 9.33435 5.05056 9.26917 4.98437C9.20398 4.91817 9.11557 4.88098 9.02339 4.88098ZM6.59131 1C3.52149 1 1.03198 3.21182 1.03198 5.93956C1.04627 6.7052 1.24348 7.45587 1.60664 8.127C1.9698 8.79814 2.48804 9.36966 3.11681 9.79241V12.291L5.54889 10.7906C5.89226 10.8491 6.23977 10.8789 6.58793 10.8798C9.65843 10.8798 12.1473 8.66798 12.1473 5.94024C12.1473 3.21251 9.66181 1 6.59131 1ZM6.59131 10.1739C6.19653 10.1726 5.80297 10.1292 5.41716 10.0442L3.78091 11.0431L3.80185 9.40617C3.18907 9.06141 2.67541 8.56033 2.31157 7.9524C1.94773 7.34447 1.7463 6.65069 1.72715 5.93956C1.72715 3.6015 3.90521 1.70526 6.59131 1.70526C9.27741 1.70526 11.4555 3.60081 11.4555 5.93956C11.4555 8.2783 9.27808 10.1739 6.59131 10.1739Z" fill="#1D5EC9" stroke="#1D5EC9" stroke-width="0.260831"/>
</svg>
