<svg width="12" height="11" viewBox="0 0 12 11" fill="none" xmlns="http://www.w3.org/2000/svg">
<g opacity="0.9">
<path d="M10.0231 1.86616H5.76396L4.6933 0.470257C4.46566 0.176009 4.13301 0 3.77172 0H1.21771C0.56122 0 0.020752 0.578362 0.020752 1.27463V8.76766C0.020752 9.46156 0.56122 10.0399 1.21771 10.0399H10.0253C10.6818 10.0399 11.2222 9.46156 11.2222 8.7653V3.12491C11.22 2.42831 10.6796 1.86616 10.0231 1.86616ZM0.516426 8.7653V1.27463C0.516426 0.867206 0.833657 0.525661 1.21771 0.525661H3.77172C3.97953 0.525661 4.1778 0.630726 4.30925 0.80437L5.11701 1.86616H2.4837C1.82941 1.86616 1.28454 2.42865 1.28454 3.12491V9.51427H1.21771C0.833657 9.51427 0.516426 9.17238 0.516426 8.7653ZM10.7236 8.7653C10.7236 9.17069 10.4064 9.51427 10.0223 9.51427H1.78315V3.12491C1.78315 2.71952 2.10552 2.39149 2.48664 2.39149H10.0231C10.4049 2.39149 10.7244 2.71986 10.7244 3.12491L10.7236 8.7653Z" fill="#1D5DC7"/>
<path d="M7.51424 5.96293L6.51734 7.1133V4.27661C6.51734 4.13377 6.4091 4.01697 6.27737 4.01697C6.14563 4.01697 6.03739 4.13377 6.03739 4.27661V7.1133L5.04975 5.96327C4.95861 5.85948 4.80979 5.85147 4.71081 5.95025C4.61376 6.06805 4.60947 6.1982 4.6987 6.31735L6.10646 7.95029C6.15204 8.00235 6.21684 8.03338 6.28164 8.03338C6.34643 8.03338 6.41123 8.00235 6.45681 7.95029L7.86458 6.31735C7.95557 6.19827 7.9505 6.06771 7.85033 5.95025C7.75349 5.85381 7.60253 5.85648 7.51424 5.96293Z" fill="#1D5DC7"/>
</g>
</svg>
