<svg width="16" height="8" viewBox="0 0 16 8" fill="none" xmlns="http://www.w3.org/2000/svg">
<path d="M7.76279 7.47438L7.76101 7.47435C7.67528 7.47286 7.59243 7.45636 7.51785 7.42707C7.44327 7.39778 7.38071 7.35723 7.33213 7.3108L7.3315 7.3102L0.997323 1.27872C0.997212 1.27862 0.9971 1.27851 0.996988 1.2784C0.896079 1.18167 0.857931 1.06945 0.863215 0.970068C0.868505 0.870579 0.918588 0.760138 1.0298 0.66794L1.03026 0.66756C1.08321 0.623558 1.14938 0.585917 1.22631 0.559874C1.30324 0.533828 1.38709 0.520721 1.47232 0.522571C1.55755 0.524421 1.63981 0.541132 1.7138 0.570455C1.78778 0.599773 1.84981 0.640197 1.89796 0.686396L1.89938 0.687743L7.50894 6.02493L7.82434 6.325L8.17083 6.03923L14.3323 0.957533L14.3334 0.956624C14.3864 0.912621 14.4527 0.874999 14.5297 0.848975C14.6067 0.822947 14.6905 0.809856 14.7758 0.811706C14.8611 0.813557 14.9434 0.830255 15.0174 0.859561C15.0914 0.888862 15.1536 0.929271 15.2018 0.975474L15.2019 0.975535C15.303 1.07234 15.3413 1.1847 15.336 1.28419C15.3307 1.38356 15.2807 1.49385 15.1698 1.58598C15.1697 1.58609 15.1695 1.5862 15.1694 1.58632L8.20622 7.32817L8.20488 7.32928C8.15189 7.37328 8.08569 7.41092 8.00878 7.43697C7.93185 7.46303 7.84802 7.47617 7.76279 7.47438Z" fill="#707070" stroke="current"/>
</svg>
