<svg width="22" height="18" viewBox="0 0 22 18" fill="none" xmlns="http://www.w3.org/2000/svg">
<g clip-path="url(#clip0_1490_53273)">
<path d="M16.4232 12.9591C14.9298 13.8863 13.1098 14.4028 11.2294 14.4331C5.10442 14.4506 1.59012 8.79399 1.59012 8.79399C2.67437 7.14889 4.18033 5.70999 6.00697 4.57383M9.3637 3.27505C9.9657 3.1592 10.5822 3.10039 11.2008 3.09979C17.3257 3.08227 20.84 8.7389 20.84 8.7389C20.3109 9.54481 19.6794 10.3039 18.9558 11.0039M13.0739 10.2628C12.8341 10.4723 12.5447 10.6405 12.223 10.7576C11.9013 10.8747 11.5539 10.9381 11.2014 10.9442C10.849 10.9502 10.4987 10.8987 10.1716 10.7928C9.84448 10.6868 9.54716 10.5286 9.29738 10.3275C9.04761 10.1265 8.8505 9.88667 8.7178 9.62245C8.58511 9.35823 8.51956 9.075 8.52506 8.78966C8.53056 8.50432 8.60699 8.22271 8.74981 7.96164C8.89262 7.70056 9.09888 7.46537 9.35629 7.27009" stroke="#707070" stroke-width="2" stroke-linecap="round" stroke-linejoin="round"/>
<path d="M1.57043 1.00232L20.8597 16.5305" stroke="#707070" stroke-width="2" stroke-linecap="round" stroke-linejoin="round"/>
</g>
<defs>
<clipPath id="clip0_1490_53273">
<rect width="21" height="17" fill="white" transform="matrix(0.999996 -0.00286156 0.00252587 0.999997 0.693604 0.296509)"/>
</clipPath>
</defs>
</svg>
