<svg width="15" height="14" viewBox="0 0 15 14" fill="none" xmlns="http://www.w3.org/2000/svg">
<path d="M12.3375 5.07063L12.1875 5.03125C12.1165 5.01882 12.0484 4.99515 11.9859 4.96125C12.2003 4.71935 12.3609 4.44001 12.4583 4.13954C12.5556 3.83906 12.5879 3.52349 12.5531 3.21125V2.96187C12.5531 2.52443 12.3669 2.10491 12.0355 1.79559C11.7041 1.48627 11.2546 1.3125 10.7859 1.3125C10.3173 1.3125 9.86776 1.48627 9.53635 1.79559C9.20494 2.10491 9.01875 2.52443 9.01875 2.96187V3.18937C8.98077 3.50514 9.01142 3.82481 9.10888 4.12926C9.20633 4.43371 9.36859 4.71669 9.58594 4.96125L9.53438 4.9875C9.32008 4.66651 9.02172 4.40174 8.66743 4.21818C8.31314 4.03461 7.9146 3.93828 7.50938 3.93828C7.10415 3.93828 6.70561 4.03461 6.35132 4.21818C5.99703 4.40174 5.69867 4.66651 5.48438 4.9875L5.43281 4.96125C5.64718 4.71935 5.80775 4.44001 5.90514 4.13954C6.00252 3.83906 6.03477 3.52349 6 3.21125V2.96187C5.99267 2.5243 5.80221 2.10676 5.46934 1.79854C5.13648 1.49032 4.68762 1.31587 4.21875 1.3125C3.75232 1.31927 3.30703 1.49521 2.97718 1.80308C2.64733 2.11094 2.45881 2.52654 2.45156 2.96187V3.18937C2.41358 3.50514 2.44423 3.82481 2.54169 4.12926C2.63914 4.43371 2.8014 4.71669 3.01875 4.96125C2.95489 4.99562 2.88509 5.01931 2.8125 5.03125L2.6625 5.07063C1.80469 5.3375 0.9375 6.08563 0.9375 7C0.9375 7.11603 0.986886 7.22731 1.07479 7.30936C1.1627 7.39141 1.28193 7.4375 1.40625 7.4375C1.53057 7.4375 1.6498 7.39141 1.73771 7.30936C1.82561 7.22731 1.875 7.11603 1.875 7C1.875 6.52313 2.42813 6.06812 2.9625 5.90188C2.99425 5.88996 3.02724 5.88116 3.06094 5.87563C3.34363 5.81937 3.59787 5.67608 3.78281 5.46875C4.06482 5.56218 4.37268 5.56218 4.65469 5.46875C4.7746 5.61725 4.93712 5.73102 5.12344 5.79688C5.0978 5.92682 5.08368 6.05852 5.08125 6.19062C5.08125 6.30875 5.08125 6.4225 5.08125 6.53625C5.08125 7.35875 5.05781 8.21187 5.9625 9.16125C5.92031 9.40188 5.775 9.44125 5.45156 9.52437L5.24063 9.58125C4.03594 9.94 2.8125 10.9812 2.8125 12.25C2.8125 12.366 2.86189 12.4773 2.94979 12.5594C3.0377 12.6414 3.15693 12.6875 3.28125 12.6875C3.40557 12.6875 3.5248 12.6414 3.61271 12.5594C3.70061 12.4773 3.75 12.366 3.75 12.25C3.75 11.4362 4.65937 10.6663 5.54062 10.395C5.59269 10.3772 5.64592 10.3626 5.7 10.3512C5.91185 10.3145 6.11327 10.2373 6.29155 10.1243C6.46984 10.0114 6.62115 9.8652 6.73594 9.695C6.97773 9.7903 7.23753 9.8394 7.5 9.8394C7.76247 9.8394 8.02227 9.7903 8.26406 9.695C8.37885 9.8652 8.53016 10.0114 8.70845 10.1243C8.88673 10.2373 9.08815 10.3145 9.3 10.3512C9.35408 10.3626 9.40731 10.3772 9.45938 10.395C10.3406 10.6663 11.25 11.4362 11.25 12.25C11.25 12.366 11.2994 12.4773 11.3873 12.5594C11.4752 12.6414 11.5944 12.6875 11.7188 12.6875C11.8431 12.6875 11.9623 12.6414 12.0502 12.5594C12.1381 12.4773 12.1875 12.366 12.1875 12.25C12.1875 10.9812 10.9641 9.94 9.75937 9.56375L9.54844 9.50688C9.225 9.42375 9.07969 9.38437 9.0375 9.14375C9.94219 8.21187 9.9375 7.35875 9.91875 6.51875C9.91875 6.405 9.91875 6.29125 9.91875 6.17312C9.91632 6.04102 9.9022 5.90932 9.87656 5.77938C10.0629 5.71352 10.2254 5.59975 10.3453 5.45125C10.6273 5.54468 10.9352 5.54468 11.2172 5.45125C11.4021 5.65858 11.6564 5.80187 11.9391 5.85813C11.9728 5.86366 12.0058 5.87246 12.0375 5.88438C12.5719 6.06812 13.125 6.52313 13.125 7C13.125 7.11603 13.1744 7.22731 13.2623 7.30936C13.3502 7.39141 13.4694 7.4375 13.5938 7.4375C13.7181 7.4375 13.8373 7.39141 13.9252 7.30936C14.0131 7.22731 14.0625 7.11603 14.0625 7C14.0625 6.08563 13.1953 5.3375 12.3375 5.07063ZM3.84844 4.51937C3.66056 4.35354 3.51946 4.14696 3.43769 3.918C3.35592 3.68903 3.33599 3.44476 3.37969 3.20687C3.37969 3.12375 3.37969 3.045 3.37969 2.96187C3.3857 2.75676 3.47632 2.56173 3.63264 2.41746C3.78897 2.27319 3.99893 2.19081 4.21875 2.1875C4.43693 2.19302 4.64454 2.27638 4.79888 2.42042C4.95321 2.56447 5.04252 2.75824 5.04844 2.96187C5.04844 3.045 5.04844 3.12375 5.04844 3.20687C5.09213 3.44476 5.07221 3.68903 4.99043 3.918C4.90866 4.14696 4.76757 4.35354 4.57969 4.51937C4.48011 4.60516 4.34957 4.65279 4.21406 4.65279C4.07855 4.65279 3.94801 4.60516 3.84844 4.51937ZM6.77812 8.68438C5.99062 7.94938 6 7.37187 6.01875 6.55375C6.01875 6.43562 6.01875 6.31312 6.01875 6.19062C6.01875 5.82512 6.17432 5.47459 6.45122 5.21614C6.72813 4.9577 7.1037 4.8125 7.49531 4.8125C7.88692 4.8125 8.26249 4.9577 8.5394 5.21614C8.81631 5.47459 8.97187 5.82512 8.97187 6.19062C8.97187 6.31312 8.97187 6.43562 8.97187 6.55375C8.97187 7.36312 9 7.94938 8.2125 8.68438C8.01799 8.85415 7.76163 8.9486 7.49531 8.9486C7.229 8.9486 6.97264 8.85415 6.77812 8.68438ZM10.4109 4.51937C10.2231 4.35354 10.082 4.14696 10.0002 3.918C9.91842 3.68903 9.89849 3.44476 9.94219 3.20687C9.94219 3.12375 9.94219 3.045 9.94219 2.96187C9.94219 2.7565 10.0296 2.55953 10.1852 2.41431C10.3408 2.26909 10.5518 2.1875 10.7719 2.1875C10.9919 2.1875 11.203 2.26909 11.3586 2.41431C11.5141 2.55953 11.6016 2.7565 11.6016 2.96187C11.6016 3.045 11.6016 3.12375 11.6016 3.20687C11.6453 3.44476 11.6253 3.68903 11.5436 3.918C11.4618 4.14696 11.3207 4.35354 11.1328 4.51937C11.0338 4.60269 10.9052 4.6488 10.7719 4.6488C10.6386 4.6488 10.51 4.60269 10.4109 4.51937Z" fill="#255C8C"/>
</svg>
