<svg width="17" height="16" viewBox="0 0 17 16" fill="none" xmlns="http://www.w3.org/2000/svg">
<path d="M11.8754 1C11.2131 1.00108 10.5608 1.16418 9.97341 1.47556C9.38599 1.78694 8.88067 2.23749 8.5 2.78925C8.11933 2.23749 7.61401 1.78694 7.0266 1.47556C6.43918 1.16418 5.78689 1.00108 5.12464 1C4.00762 1.06335 2.95706 1.56072 2.18962 2.38956C1.42218 3.21839 0.996378 4.31548 1.00002 5.45458C1.00002 7.767 2.28272 10.1489 4.70891 12.3424C5.83319 13.3569 7.0664 14.2389 8.38509 14.9716C8.42061 14.9902 8.46002 15 8.5 15C8.53998 15 8.57939 14.9902 8.61491 14.9716C9.93327 14.2388 11.1662 13.3568 12.2902 12.3424C14.7192 10.1489 16 7.767 16 5.45458C16.0036 4.31548 15.5778 3.21839 14.8104 2.38956C14.0429 1.56072 12.9924 1.06335 11.8754 1ZM8.5 14.456C7.58165 13.9366 1.49983 10.3363 1.49983 5.45458C1.49282 4.44937 1.86488 3.47973 2.53931 2.7456C3.21374 2.01147 4.13911 1.56881 5.12464 1.5089C5.7682 1.50916 6.40014 1.68351 6.95579 2.0141C7.51144 2.3447 7.97084 2.81967 8.287 3.39042C8.31073 3.42712 8.34305 3.45724 8.38104 3.47808C8.41904 3.49892 8.46152 3.50983 8.50467 3.50983C8.54783 3.50983 8.59031 3.49892 8.6283 3.47808C8.66629 3.45724 8.69861 3.42712 8.72235 3.39042C9.03772 2.82108 9.49566 2.34701 10.0495 2.01649C10.6034 1.68598 11.2334 1.51084 11.8754 1.5089C12.8609 1.56881 13.7863 2.01147 14.4607 2.7456C15.1351 3.47973 15.5072 4.44937 15.5002 5.45458C15.5002 10.3363 9.41835 13.9404 8.5 14.456Z" fill="#336CCC" stroke="#1D5EC9" stroke-width="0.489058"/>
</svg>
