<svg width="18" height="12" viewBox="0 0 18 12" fill="none" xmlns="http://www.w3.org/2000/svg">
<g clip-path="url(#clip0_1490_53270)">
<path d="M14.1807 5.07792L4.26407 5.1063C3.48167 5.10854 2.84845 5.52076 2.84973 6.02702L2.85783 9.23534C2.85911 9.7416 3.49441 10.1502 4.27681 10.1479L14.1934 10.1196C14.9758 10.1173 15.6091 9.70511 15.6078 9.19885L15.5997 5.99053C15.5984 5.48427 14.9631 5.07568 14.1807 5.07792Z" stroke="#707070" stroke-width="2" stroke-linecap="round" stroke-linejoin="round"/>
<path d="M5.68071 5.10222L5.67608 3.26889C5.67454 2.66111 6.04621 2.07715 6.70931 1.64548C7.37241 1.21381 8.27264 0.969787 9.21194 0.967099C10.1512 0.964411 11.0527 1.20328 11.718 1.63114C12.3832 2.05901 12.7578 2.64084 12.7594 3.24862L12.764 5.08195" stroke="#707070" stroke-width="2" stroke-linecap="round" stroke-linejoin="round"/>
</g>
<defs>
<clipPath id="clip0_1490_53270">
<rect width="17" height="11" fill="white" transform="matrix(0.999996 -0.00286156 0.00252587 0.999997 0.709717 0.0747681)"/>
</clipPath>
</defs>
</svg>
