<svg width="17" height="16" viewBox="0 0 17 16" fill="none" xmlns="http://www.w3.org/2000/svg">
<path d="M10.8462 8.43723H6.15742C6.03302 8.43723 5.91371 8.48335 5.82574 8.56542C5.73777 8.6475 5.68835 8.75882 5.68835 8.87489C5.68835 8.99097 5.73777 9.10229 5.82574 9.18437C5.91371 9.26644 6.03302 9.31255 6.15742 9.31255H10.8462C10.9706 9.31255 11.0899 9.26644 11.1779 9.18437C11.2659 9.10229 11.3153 8.99097 11.3153 8.87489C11.3153 8.75882 11.2659 8.6475 11.1779 8.56542C11.0899 8.48335 10.9706 8.43723 10.8462 8.43723ZM11.7844 5.81213H5.2202C5.0958 5.81213 4.97649 5.85824 4.88853 5.94032C4.80056 6.02239 4.75114 6.13371 4.75114 6.24979C4.75114 6.36586 4.80056 6.47718 4.88853 6.55926C4.97649 6.64134 5.0958 6.68745 5.2202 6.68745H11.7844C11.9088 6.68745 12.0281 6.64134 12.116 6.55926C12.204 6.47718 12.2534 6.36586 12.2534 6.24979C12.2534 6.13371 12.204 6.02239 12.116 5.94032C12.0281 5.85824 11.9088 5.81213 11.7844 5.81213ZM8.50228 1C4.35957 1 1 3.7425 1 7.12468C1.01928 8.07403 1.28541 9.0048 1.77549 9.83695C2.26557 10.6691 2.96495 11.3777 3.81347 11.9019V15L7.09555 13.1396C7.55892 13.2122 8.02788 13.2491 8.49772 13.2502C12.6413 13.2502 16 10.5077 16 7.12553C16 3.74335 12.6459 1 8.50228 1ZM8.50228 12.3749C7.96952 12.3734 7.43842 12.3195 6.91777 12.2141L4.70966 13.4527L4.73792 11.423C3.91097 10.9955 3.21779 10.3742 2.7268 9.62046C2.2358 8.86667 1.96397 8.00644 1.93813 7.12468C1.93813 4.22567 4.87741 1.87447 8.50228 1.87447C12.1272 1.87447 15.0664 4.22481 15.0664 7.12468C15.0664 10.0245 12.1281 12.3749 8.50228 12.3749Z" fill="#1D5EC9" stroke="#1D5EC9" stroke-width="0.260831"/>
</svg>
