<svg width="11" height="12" viewBox="0 0 11 12" fill="none" xmlns="http://www.w3.org/2000/svg">
<path d="M10.0913 8.27655e-09H1.46655C1.43577 -7.536e-06 1.40529 0.00564546 1.37685 0.016636C1.34841 0.0276266 1.32257 0.0437392 1.30081 0.0640535C1.27904 0.0843679 1.26178 0.108486 1.25 0.135029C1.23822 0.161572 1.23217 0.190021 1.23218 0.21875V8.37979C1.2336 8.8669 1.13149 9.34943 0.931777 9.79946C0.732059 10.2495 0.438692 10.6581 0.0686568 11.0016C0.0358766 11.0322 0.0135518 11.0712 0.00450595 11.1136C-0.00453995 11.156 9.91684e-05 11.2 0.017837 11.24C0.0355748 11.2799 0.0656144 11.3141 0.104157 11.3381C0.142699 11.3622 0.188012 11.375 0.234366 11.375H8.85921C8.92136 11.375 8.98097 11.3519 9.02492 11.3109C9.43861 10.9269 9.76659 10.4701 9.98986 9.96696C10.2131 9.46383 10.3273 8.92436 10.3257 8.37979V0.21875C10.3257 0.190021 10.3196 0.161572 10.3078 0.135028C10.2961 0.108485 10.2788 0.084367 10.257 0.0640526C10.2353 0.0437382 10.2094 0.0276256 10.181 0.0166352C10.1525 0.00564479 10.1221 -7.89527e-06 10.0913 8.27655e-09ZM9.8569 8.37979C9.85974 9.33263 9.46677 10.2494 8.76056 10.9375H0.755531C1.37064 10.2088 1.70381 9.30746 1.70094 8.37979V0.4375H9.8569V8.37979Z" fill="#255C8D"/>
<path d="M3.0907 3.19281H8.46713C8.52929 3.19281 8.58891 3.16976 8.63286 3.12874C8.67681 3.08772 8.70151 3.03208 8.70151 2.97406C8.70151 2.91604 8.67681 2.8604 8.63286 2.81938C8.58891 2.77836 8.52929 2.75531 8.46713 2.75531H3.0907C3.02854 2.75531 2.96892 2.77836 2.92497 2.81938C2.88102 2.8604 2.85632 2.91604 2.85632 2.97406C2.85632 3.03208 2.88102 3.08772 2.92497 3.12874C2.96892 3.16976 3.02854 3.19281 3.0907 3.19281Z" fill="#255C8D"/>
<path d="M3.0907 4.67493H8.46713C8.52929 4.67493 8.58891 4.65188 8.63286 4.61086C8.67681 4.56983 8.70151 4.51419 8.70151 4.45618C8.70151 4.39816 8.67681 4.34252 8.63286 4.3015C8.58891 4.26047 8.52929 4.23743 8.46713 4.23743H3.0907C3.02854 4.23743 2.96892 4.26047 2.92497 4.3015C2.88102 4.34252 2.85632 4.39816 2.85632 4.45618C2.85632 4.51419 2.88102 4.56983 2.92497 4.61086C2.96892 4.65188 3.02854 4.67493 3.0907 4.67493Z" fill="#255C8D"/>
<path d="M3.0907 6.15704H8.46713C8.52929 6.15704 8.58891 6.134 8.63286 6.09297C8.67681 6.05195 8.70151 5.99631 8.70151 5.93829C8.70151 5.88028 8.67681 5.82464 8.63286 5.78361C8.58891 5.74259 8.52929 5.71954 8.46713 5.71954H3.0907C3.02854 5.71954 2.96892 5.74259 2.92497 5.78361C2.88102 5.82464 2.85632 5.88028 2.85632 5.93829C2.85632 5.99631 2.88102 6.05195 2.92497 6.09297C2.96892 6.134 3.02854 6.15704 3.0907 6.15704Z" fill="#255C8D"/>
<path d="M3.0907 7.63916H8.46713C8.52929 7.63916 8.58891 7.61611 8.63286 7.57509C8.67681 7.53407 8.70151 7.47843 8.70151 7.42041C8.70151 7.36239 8.67681 7.30675 8.63286 7.26573C8.58891 7.22471 8.52929 7.20166 8.46713 7.20166H3.0907C3.02854 7.20166 2.96892 7.22471 2.92497 7.26573C2.88102 7.30675 2.85632 7.36239 2.85632 7.42041C2.85632 7.47843 2.88102 7.53407 2.92497 7.57509C2.96892 7.61611 3.02854 7.63916 3.0907 7.63916Z" fill="#255C8D"/>
</svg>
