<svg width="32" height="32" viewBox="0 0 32 32" fill="none" xmlns="http://www.w3.org/2000/svg">
<path d="M13.9999 14C15.6151 14 17.1941 13.5895 18.5371 12.8203C19.8801 12.0511 20.9268 10.9579 21.5449 9.67879C22.163 8.3997 22.3248 6.99224 22.0097 5.63437C21.6946 4.2765 20.9168 3.02922 19.7746 2.05026C18.6325 1.07129 17.1773 0.404603 15.5932 0.134506C14.009 -0.13559 12.3669 0.00303298 10.8747 0.532846C9.38241 1.06266 8.10695 1.95987 7.20958 3.11101C6.31222 4.26216 5.83325 5.61553 5.83325 7C5.83325 8.85652 6.69367 10.637 8.22521 11.9497C9.75676 13.2625 11.834 14 13.9999 14ZM13.9999 2C15.1536 2 16.2815 2.29325 17.2407 2.84265C18.2 3.39206 18.9477 4.17296 19.3892 5.08659C19.8307 6.00022 19.9462 7.00555 19.7212 7.97545C19.4961 8.94536 18.9405 9.83627 18.1247 10.5355C17.3089 11.2348 16.2695 11.711 15.1379 11.9039C14.0064 12.0969 12.8335 11.9978 11.7676 11.6194C10.7017 11.241 9.79065 10.6001 9.14968 9.77785C8.5087 8.95561 8.16659 7.98891 8.16659 7C8.16659 5.67392 8.78117 4.40215 9.87513 3.46447C10.9691 2.52679 12.4528 2 13.9999 2Z" fill="#1D5DC7"/>
<path d="M15.1667 18H12.8333C9.42972 18 6.16551 19.1589 3.7588 21.2218C1.35208 23.2847 0 26.0826 0 29C0 29.2652 0.122917 29.5196 0.341709 29.7071C0.560501 29.8946 0.857247 30 1.16667 30H26.8333C27.1428 30 27.4395 29.8946 27.6583 29.7071C27.8771 29.5196 28 29.2652 28 29C28 26.0826 26.6479 23.2847 24.2412 21.2218C21.8345 19.1589 18.5703 18 15.1667 18ZM2.40333 28C2.69021 25.8006 3.91243 23.769 5.83646 22.2932C7.76049 20.8175 10.2514 20.0011 12.8333 20H15.1667C17.7486 20.0011 20.2395 20.8175 22.1635 22.2932C24.0876 23.769 25.3098 25.8006 25.5967 28H2.40333Z" fill="#1D5DC7"/>
</svg>
