<svg width="15" height="14" viewBox="0 0 15 14" fill="none" xmlns="http://www.w3.org/2000/svg">
<path d="M9.00282 6.99944C9.59598 6.99944 10.1758 6.79418 10.669 6.40963C11.1622 6.02508 11.5466 5.47849 11.7736 4.839C12.0006 4.19951 12.06 3.49584 11.9442 2.81696C11.8285 2.13808 11.5429 1.51449 11.1235 1.02505C10.704 0.535601 10.1697 0.202285 9.58791 0.0672478C9.00615 -0.0677896 8.40314 0.00151607 7.85514 0.266401C7.30714 0.531287 6.83875 0.979855 6.50921 1.55538C6.17968 2.13091 6.00379 2.80754 6.00379 3.49972C6.00633 4.42699 6.32311 5.31543 6.88499 5.97112C7.44687 6.6268 8.20821 6.99647 9.00282 6.99944ZM9.00282 8.74986C7.016 8.74986 3.00378 9.93106 3.00378 12.2496V14H14.9999V12.2496C14.9999 9.93106 10.9877 8.74986 9.00282 8.74986Z" fill="#1D5DC7"/>
<path d="M2.99904 5.83077V3.49762H2.00032V5.83077H0V6.99734H2.00032V9.33048H2.99904V6.99734H4.99936V5.83077H2.99904Z" fill="#1D5DC7"/>
</svg>
