<svg width="81" height="82" viewBox="0 0 81 82" fill="none" xmlns="http://www.w3.org/2000/svg">
<path d="M40.7561 7.95542e-05C62.9843 0.0101885 81 18.2525 81 40.7542C81 51.9992 76.5007 62.1805 69.2251 69.5542L69.2254 69.5538C61.8937 77.2326 51.6275 82 40.2615 82C18.0257 82 0 63.7538 0 41.2459C0 29.7453 4.70619 19.3573 12.2756 11.9475L12.2868 11.9365C19.5323 4.56311 29.5628 0 40.646 0H40.7621H40.7562L40.7561 7.95542e-05ZM40.7561 76.0744C60.0271 76.0744 75.6493 60.261 75.6493 40.7542C75.6493 21.2474 60.0271 5.43399 40.7561 5.43399C21.4851 5.43399 5.86284 21.2474 5.86284 40.7542C5.88525 60.2519 21.494 76.0517 40.7539 76.0744H40.7561ZM27.8366 59.2764V22.2319L59.8347 40.7541L27.8366 59.2764ZM33.2049 31.5999V49.9085L49.0196 40.754L33.2049 31.5999Z" fill="#FF0000"/>
</svg>
