<svg width="15" height="14" viewBox="0 0 15 14" fill="none" xmlns="http://www.w3.org/2000/svg">
<g clip-path="url(#clip0_1490_52932)">
<path d="M10.3125 9.625V12.25H2.8125V1.75H7.5V0.875H2.8125C2.56386 0.875 2.3254 0.967187 2.14959 1.13128C1.97377 1.29538 1.875 1.51794 1.875 1.75V12.25C1.875 12.4821 1.97377 12.7046 2.14959 12.8687C2.3254 13.0328 2.56386 13.125 2.8125 13.125H10.3125C10.5611 13.125 10.7996 13.0328 10.9754 12.8687C11.1512 12.7046 11.25 12.4821 11.25 12.25V9.625H10.3125Z" fill="#255C8A"/>
<path d="M13.8469 2.52001L12.3 1.07626C12.1598 0.948001 11.9713 0.87616 11.775 0.87616C11.5787 0.87616 11.3902 0.948001 11.25 1.07626L4.6875 7.20126V9.62501H7.27969L13.8422 3.50001C13.9796 3.36916 14.0566 3.19324 14.0566 3.01001C14.0566 2.82678 13.9796 2.65086 13.8422 2.52001H13.8469ZM6.89062 8.75001H5.625V7.56876L10.05 3.43438L11.3203 4.62001L6.89062 8.75001ZM11.9812 4.00313L10.7109 2.81751L11.775 1.82438L13.0453 3.01001L11.9812 4.00313Z" fill="#245C8F"/>
</g>
<defs>
<clipPath id="clip0_1490_52932">
<rect width="15" height="14" fill="white"/>
</clipPath>
</defs>
</svg>
