<svg width="15" height="14" viewBox="0 0 15 14" fill="none" xmlns="http://www.w3.org/2000/svg">
<path d="M1.57895 0C0.702632 0 0 0.663158 0 1.47368V11.7895C0 12.6 0.702632 13.2632 1.57895 13.2632H7.74474C7.46053 12.8063 7.26316 12.3053 7.16842 11.7895H1.57895V1.47368H10.3974L12.6316 3.55895V6.69053C13.1842 6.77895 13.7211 6.96316 14.2105 7.22842V2.94737L11.0526 0H1.57895ZM2.36842 2.21053V5.15789H9.47368V2.21053H2.36842ZM7.10526 6.63158C5.79474 6.63158 4.73684 7.61895 4.73684 8.8421C4.73684 10.0653 5.79474 11.0526 7.10526 11.0526C7.10526 9.66 7.8079 8.35579 8.99211 7.52316C8.56579 7 7.89474 6.63158 7.10526 6.63158ZM11.0526 8.10526V10.3158H8.68421V11.7895H11.0526V14H12.6316V11.7895H15V10.3158H12.6316V8.10526H11.0526Z" fill="#255C8B"/>
</svg>
