<svg width="11" height="10" viewBox="0 0 11 10" fill="none" xmlns="http://www.w3.org/2000/svg">
<path d="M5.83118 2.96924C4.28492 2.97015 2.80225 3.61041 1.70888 4.74935C0.615517 5.8883 0.000878305 7.43278 0 9.04349C0.483679 7.76986 1.36617 6.70376 2.50437 6.01804C3.64258 5.33232 4.96977 5.06719 6.27076 5.26564L5.83118 2.96924Z" fill="#1D5DC7"/>
<path d="M10.1129 4.4609L5.83052 0V4.48162C4.5056 4.43916 3.2063 4.86793 2.14653 5.69734C1.08676 6.52674 0.329705 7.70733 0 9.04473C0.561776 7.97831 1.41783 7.11203 2.45741 6.55795C3.49699 6.00387 4.67226 5.78749 5.83118 5.93681V8.92111L10.1129 4.4609Z" fill="#1D5DC7"/>
</svg>
