<svg width="15" height="14" viewBox="0 0 15 14" fill="none" xmlns="http://www.w3.org/2000/svg">
<path d="M10.6047 4.59619C8.31119 4.59761 6.11202 5.58863 4.49028 7.35156C2.86853 9.1145 1.95687 11.5051 1.95557 13.9983C2.67298 12.0269 3.98194 10.3767 5.67019 9.31531C7.35844 8.25391 9.327 7.84353 11.2567 8.15071L10.6047 4.59619Z" fill="#1D5DC7"/>
<path d="M15 6.90486L8.64813 0V6.93693C6.68295 6.87122 4.75575 7.53489 3.18385 8.81869C1.61194 10.1025 0.489035 11.9299 0 14C0.833256 12.3493 2.103 11.0084 3.64496 10.1508C5.18692 9.29317 6.93014 8.95824 8.64912 9.18937V13.8087L15 6.90486Z" fill="#1D5DC7"/>
</svg>
